name ./resultDataOpenSim/trcMotMarkerGrf/sub06/grf-13-05.mot
datacolumns 19
datarows 25
range 1.47600000 1.57200000
endheader

                time	     ground_force_vx	     ground_force_vy	     ground_force_vz	     ground_force_px	     ground_force_py	     ground_force_pz	   l_ground_force_vx	   l_ground_force_vy	   l_ground_force_vz	   l_ground_force_px	   l_ground_force_py	   l_ground_force_pz	     ground_torque_x	     ground_torque_y	     ground_torque_z	   l_ground_torque_x	   l_ground_torque_y	   l_ground_torque_z	
          1.47600000	        107.31775298	        581.41042417	        -30.13800047	          0.93742911	          0.00000000	          0.11186117	          0.00000000	          0.00000000	          0.00000000	          0.00000000	          0.00000000	          0.00000000	          0.00000000	          3.38759304	          0.00000000	          0.00000000	          0.00000000	          0.00000000	
          1.48000000	        113.65557327	        593.17978048	        -31.87229232	          0.93738771	          0.00000000	          0.11176446	          0.00000000	          0.00000000	          0.00000000	          0.00000000	          0.00000000	          0.00000000	          0.00000000	          3.39716325	          0.00000000	          0.00000000	          0.00000000	          0.00000000	
          1.48400000	        120.00355830	        604.14289715	        -33.42912669	          0.93737581	          0.00000000	          0.11165814	          0.00000000	          0.00000000	          0.00000000	          0.00000000	          0.00000000	          0.00000000	          0.00000000	          3.39768035	          0.00000000	          0.00000000	          0.00000000	          0.00000000	
          1.48800000	        126.30570835	        614.09938480	        -34.62769117	          0.93737932	          0.00000000	          0.11153749	          0.00000000	          0.00000000	          0.00000000	          0.00000000	          0.00000000	          0.00000000	          0.00000000	          3.39376359	          0.00000000	          0.00000000	          0.00000000	          0.00000000	
          1.49200000	        132.50173461	        622.87139737	        -35.34977718	          0.93738653	          0.00000000	          0.11139574	          0.00000000	          0.00000000	          0.00000000	          0.00000000	          0.00000000	          0.00000000	          0.00000000	          3.39208762	          0.00000000	          0.00000000	          0.00000000	          0.00000000	
          1.49600000	        138.53309686	        630.31133521	        -35.55785471	          0.93740048	          0.00000000	          0.11122846	          0.00000000	          0.00000000	          0.00000000	          0.00000000	          0.00000000	          0.00000000	          0.00000000	          3.40070842	          0.00000000	          0.00000000	          0.00000000	          0.00000000	
          1.50000000	        144.35813418	        636.30745768	        -35.29754744	          0.93742271	          0.00000000	          0.11103747	          0.00000000	          0.00000000	          0.00000000	          0.00000000	          0.00000000	          0.00000000	          0.00000000	          3.42743775	          0.00000000	          0.00000000	          0.00000000	          0.00000000	
          1.50400000	        149.98604307	        640.78683000	        -34.68381389	          0.93745298	          0.00000000	          0.11082671	          0.00000000	          0.00000000	          0.00000000	          0.00000000	          0.00000000	          0.00000000	          0.00000000	          3.47724968	          0.00000000	          0.00000000	          0.00000000	          0.00000000	
          1.50800000	        155.53040553	        643.70271706	        -33.87157412	          0.93748078	          0.00000000	          0.11060636	          0.00000000	          0.00000000	          0.00000000	          0.00000000	          0.00000000	          0.00000000	          0.00000000	          3.54925763	          0.00000000	          0.00000000	          0.00000000	          0.00000000	
          1.51200000	        161.23874523	        645.01012822	        -33.02588278	          0.93747632	          0.00000000	          0.11038851	          0.00000000	          0.00000000	          0.00000000	          0.00000000	          0.00000000	          0.00000000	          0.00000000	          3.63452939	          0.00000000	          0.00000000	          0.00000000	          0.00000000	
          1.51600000	        167.42014781	        644.63058411	        -32.30902715	          0.93737006	          0.00000000	          0.11017955	          0.00000000	          0.00000000	          0.00000000	          0.00000000	          0.00000000	          0.00000000	          0.00000000	          3.71646083	          0.00000000	          0.00000000	          0.00000000	          0.00000000	
          1.52000000	        174.28061064	        642.41492675	        -31.86245945	          0.93710369	          0.00000000	          0.10999887	          0.00000000	          0.00000000	          0.00000000	          0.00000000	          0.00000000	          0.00000000	          0.00000000	          3.77467660	          0.00000000	          0.00000000	          0.00000000	          0.00000000	
          1.52400000	        181.80103818	        638.14697721	        -31.75906196	          0.93667458	          0.00000000	          0.10986195	          0.00000000	          0.00000000	          0.00000000	          0.00000000	          0.00000000	          0.00000000	          0.00000000	          3.79121539	          0.00000000	          0.00000000	          0.00000000	          0.00000000	
          1.52800000	        189.73530502	        631.57779732	        -31.96600015	          0.93611182	          0.00000000	          0.10975787	          0.00000000	          0.00000000	          0.00000000	          0.00000000	          0.00000000	          0.00000000	          0.00000000	          3.75585778	          0.00000000	          0.00000000	          0.00000000	          0.00000000	
          1.53200000	        197.68027278	        622.42810854	        -32.35090032	          0.93542364	          0.00000000	          0.10967070	          0.00000000	          0.00000000	          0.00000000	          0.00000000	          0.00000000	          0.00000000	          0.00000000	          3.66782673	          0.00000000	          0.00000000	          0.00000000	          0.00000000	
          1.53600000	        205.15841490	        610.36049725	        -32.70153214	          0.93461702	          0.00000000	          0.10959111	          0.00000000	          0.00000000	          0.00000000	          0.00000000	          0.00000000	          0.00000000	          0.00000000	          3.53332316	          0.00000000	          0.00000000	          0.00000000	          0.00000000	
          1.54000000	        211.68459516	        594.96875255	        -32.75376085	          0.93370288	          0.00000000	          0.10951182	          0.00000000	          0.00000000	          0.00000000	          0.00000000	          0.00000000	          0.00000000	          0.00000000	          3.36064721	          0.00000000	          0.00000000	          0.00000000	          0.00000000	
          1.54400000	        216.79535054	        575.79229232	        -32.24547190	          0.93267498	          0.00000000	          0.10942461	          0.00000000	          0.00000000	          0.00000000	          0.00000000	          0.00000000	          0.00000000	          0.00000000	          3.15573882	          0.00000000	          0.00000000	          0.00000000	          0.00000000	
          1.54800000	        220.02471347	        552.33979818	        -30.96873148	          0.93152910	          0.00000000	          0.10931952	          0.00000000	          0.00000000	          0.00000000	          0.00000000	          0.00000000	          0.00000000	          0.00000000	          2.92056024	          0.00000000	          0.00000000	          0.00000000	          0.00000000	
          1.55200000	        220.85335879	        524.14127419	        -28.79940379	          0.93028999	          0.00000000	          0.10918937	          0.00000000	          0.00000000	          0.00000000	          0.00000000	          0.00000000	          0.00000000	          0.00000000	          2.65530643	          0.00000000	          0.00000000	          0.00000000	          0.00000000	
          1.55600000	        218.69469439	        490.86158966	        -25.71999640	          0.92902328	          0.00000000	          0.10904269	          0.00000000	          0.00000000	          0.00000000	          0.00000000	          0.00000000	          0.00000000	          0.00000000	          2.36355337	          0.00000000	          0.00000000	          0.00000000	          0.00000000	
          1.56000000	        212.94662849	        452.46530067	        -21.83155145	          0.92784490	          0.00000000	          0.10891103	          0.00000000	          0.00000000	          0.00000000	          0.00000000	          0.00000000	          0.00000000	          0.00000000	          2.05769479	          0.00000000	          0.00000000	          0.00000000	          0.00000000	
          1.56400000	        203.09265448	        409.39353028	        -17.34289081	          0.92690486	          0.00000000	          0.10884467	          0.00000000	          0.00000000	          0.00000000	          0.00000000	          0.00000000	          0.00000000	          0.00000000	          1.76132579	          0.00000000	          0.00000000	          0.00000000	          0.00000000	
          1.56800000	        188.83591451	        362.70867175	        -12.55226088	          0.92637038	          0.00000000	          0.10890923	          0.00000000	          0.00000000	          0.00000000	          0.00000000	          0.00000000	          0.00000000	          0.00000000	          1.50632673	          0.00000000	          0.00000000	          0.00000000	          0.00000000	
          1.57200000	        170.25163617	        314.14150595	         -7.82532811	          0.92646688	          0.00000000	          0.10917060	          0.00000000	          0.00000000	          0.00000000	          0.00000000	          0.00000000	          0.00000000	          0.00000000	          1.32483145	          0.00000000	          0.00000000	          0.00000000	          0.00000000	
